<!DOCTYPE svg PUBLIC "-//W3C//DTD SVG 1.1//EN" "http://www.w3.org/Graphics/SVG/1.1/DTD/svg11.dtd">
<!-- Uploaded to: SVG Repo, www.svgrepo.com, Transformed by: SVG Repo Mixer Tools -->
<svg fill="#ffffff" width="151px" height="151px" viewBox="-16.96 -16.96 65.92 65.92" id="icon" xmlns="http://www.w3.org/2000/svg" stroke="#ffffff" stroke-width="0.00032" transform="matrix(-1, 0, 0, 1, 0, 0)rotate(270)">
<g id="SVGRepo_bgCarrier" stroke-width="0" transform="translate(1.2799999999999994,1.2799999999999994), scale(0.92)">
<rect x="-16.96" y="-16.96" width="65.92" height="65.92" rx="32.96" fill="#3e5a93" strokewidth="0"/>
</g>
<g id="SVGRepo_tracerCarrier" stroke-linecap="round" stroke-linejoin="round" stroke="#CCCCCC" stroke-width="2.048"/>
<g id="SVGRepo_iconCarrier">
<defs>
<style>.cls-1{fill:none;}</style>
</defs>
<title>categories</title>
<path d="M6.76,6l.45.89L7.76,8H12v5H4V6H6.76m.62-2H3A1,1,0,0,0,2,5v9a1,1,0,0,0,1,1H13a1,1,0,0,0,1-1V7a1,1,0,0,0-1-1H9L8.28,4.55A1,1,0,0,0,7.38,4Z" transform="translate(0 0)"/>
<path d="M22.76,6l.45.89L23.76,8H28v5H20V6h2.76m.62-2H19a1,1,0,0,0-1,1v9a1,1,0,0,0,1,1H29a1,1,0,0,0,1-1V7a1,1,0,0,0-1-1H25l-.72-1.45a1,1,0,0,0-.9-.55Z" transform="translate(0 0)"/>
<path d="M6.76,19l.45.89L7.76,21H12v5H4V19H6.76m.62-2H3a1,1,0,0,0-1,1v9a1,1,0,0,0,1,1H13a1,1,0,0,0,1-1V20a1,1,0,0,0-1-1H9l-.72-1.45a1,1,0,0,0-.9-.55Z" transform="translate(0 0)"/>
<path d="M22.76,19l.45.89L23.76,21H28v5H20V19h2.76m.62-2H19a1,1,0,0,0-1,1v9a1,1,0,0,0,1,1H29a1,1,0,0,0,1-1V20a1,1,0,0,0-1-1H25l-.72-1.45a1,1,0,0,0-.9-.55Z" transform="translate(0 0)"/>
<rect id="_Transparent_Rectangle_" data-name="&lt;Transparent Rectangle&gt;" class="cls-1" width="32" height="32"/>
</g>
</svg>